:FULLY-SPECIFIED
:FORCE-ALL-JOINTS-BE-3DOF
:DEGREES
985
root 1.11542 15.153 32.4948 5.37809 -4.67268 364.124
lfemur 8.69963 1.76851 5.16666
ltibia 3.49861e-14 0 0
lfoot -30.105 -11.7143 0
ltoes -33.8762 0 0
rfemur -32.9601 -15.4958 -6.26304
rtibia 50.8354 0 0
rfoot -22.6051 4.99797 0
rtoes -41.8972 0 0
lowerback -1.55952 -0.419402 0.711649
upperback -0.71732 -0.562807 -5.90918
thorax 0.0696762 -0.297417 -6.54228
lowerneck -6.66561 1.13655 5.87464
upperneck 1.06765 0.934706 3.32563
head 1.46878 0.569495 0.0806115
lclavicle -1.19271e-15 -1.90833e-14 0
lhumerus -58.3302 -45.1106 114.756
lradius 55.0431 0 0
lwrist 25.17 0 0
lhand 37.2967 24.4826 0
lfingers 7.12502 0 0
lthumb 60.119 38.1373 0
rclavicle -1.19271e-15 -1.90833e-14 0
rhumerus 3.74617 -25.0279 -0.173623
rradius 28.014 0 0
rwrist -11.3028 0 0
rhand -31.4609 -44.6274 0
rfingers 7.12502 0 0
rthumb -4.72817 -794.555 0
986
root 1.11548 15.153 32.4947 5.37713 -4.67044 4.12291
lfemur 8.6993 1.76616 5.16777
ltibia 3.48912e-14 -0 0
lfoot -30.1051 -11.7131 -5.36583e-07
ltoes -33.8772 0 0
rfemur -32.9575 -15.4966 -6.26258
rtibia 50.8343 -0 0
rfoot -22.6044 4.998 1.09579e-07
rtoes -41.8976 0 0
lowerback -1.55939 -0.41886 0.71072
upperback -0.71698 -0.562049 -5.90931
thorax 0.0700443 -0.29702 -6.54187
lowerneck -6.66654 1.13611 5.87549
upperneck 1.06877 0.933909 3.32607
head 1.4693 0.569162 0.0805851
lclavicle -1.18625e-15 -1.90693e-14 -4.47215e-34
lhumerus -58.3308 -45.1132 114.757
lradius 55.0443 -0 0
lwrist 25.1701 0 0
lhand 37.2967 24.4836 -9.25446e-09
lfingers 7.12502 -0 0
lthumb 60.119 38.1383 -8.42996e-09
rclavicle -1.18625e-15 -1.90693e-14 -4.47215e-34
rhumerus 3.74432 -25.0258 -0.17288
rradius 28.0132 -0 0
rwrist -11.3007 0 0
rhand -31.4595 -44.624 2.34986e-05
rfingers 7.12502 -0 0
rthumb -4.72683 -74.5516 2.25188e-05
987
root 1.11567 15.153 32.4945 5.37433 -4.66386 4.11971
lfemur 8.69834 1.75925 5.17101
ltibia 3.46127e-14 -0 0
lfoot -30.1053 -11.7095 -2.09997e-06
ltoes -33.88 0 0
rfemur -32.9499 -15.4989 -6.26121
rtibia 50.8311 -0 0
rfoot -22.6025 4.9981 4.28849e-07
rtoes -41.8988 0 0
lowerback -1.559 -0.417268 0.707996
upperback -0.715984 -0.559825 -5.9097
thorax 0.0711242 -0.295854 -6.54068
lowerneck -6.66926 1.13481 5.87799
upperneck 1.07205 0.931571 3.32738
head 1.47084 0.568183 0.0805077
lclavicle -1.16731e-15 -1.90284e-14 -1.75022e-33
lhumerus -58.3326 -45.1209 114.76
lradius 55.048 -0 0
lwrist 25.1705 0 0
lhand 37.2967 24.4864 -3.62181e-08
lfingers 7.12502 -0 0
lthumb 60.119 38.1411 -3.29914e-08
rclavicle -1.16731e-15 -1.90284e-14 -1.75022e-33
rhumerus 3.73888 -25.0197 -0.170699
rradius 28.011 -0 0
rwrist -11.2944 0 0
rhand -31.4554 -44.614 9.19643e-05
rfingers 7.12502 -0 0
rthumb -4.72289 -74.5417 8.81298e-05
988
root 1.11597 15.1531 32.4942 5.36977 -4.65317 4.11452
lfemur 8.69677 1.74802 5.17629
ltibia 3.416e-14 -0 0
lfoot -30.1058 -11.7036 -4.60635e-06
ltoes -33.8845 0 0
rfemur -32.9376 -15.5026 -6.259
rtibia 50.8259 -0 0
rfoot -22.5993 4.99826 9.40695e-07
rtoes -41.9007 0 0
lowerback -1.55836 -0.414681 0.703568
upperback -0.714364 -0.55621 -5.91032
thorax 0.0728795 -0.293959 -6.53873
lowerneck -6.67369 1.13271 5.88206
upperneck 1.07739 0.927771 3.32949
head 1.47333 0.566593 0.0803819
lclavicle -1.13652e-15 -1.89618e-14 -3.83916e-33
lhumerus -58.3355 -45.1334 114.765
lradius 55.0538 -0 0
lwrist 25.1712 0 0
lhand 37.2967 24.491 -7.94458e-08
lfingers 7.12502 -0 0
lthumb 60.119 38.1457 -7.23678e-08
rclavicle -1.13652e-15 -1.89618e-14 -3.83916e-33
rhumerus 3.73005 -25.0098 -0.167157
rradius 28.0073 -0 0
rwrist -11.2842 0 0
rhand -31.4488 -44.5977 0.000201728
rfingers 7.12502 -0 0
rthumb -4.7165 -74.5256 0.000193317
989
root 1.11637 15.1532 32.4938 5.36355 -4.63859 4.10743
lfemur 8.69463 1.73271 5.18348
ltibia 3.35426e-14 -0 0
lfoot -30.1063 -11.6956 -7.95576e-06
ltoes -33.8907 0 0
rfemur -32.9209 -15.5078 -6.25598
rtibia 50.8188 -0 0
rfoot -22.595 4.99848 1.6247e-06
rtoes -41.9033 0 0
lowerback -1.5575 -0.411153 0.697529
upperback -0.712154 -0.551279 -5.91118
thorax 0.0752737 -0.291374 -6.53608
lowerneck -6.67972 1.12984 5.88761
upperneck 1.08467 0.922587 3.33238
head 1.47673 0.564425 0.0802101
lclavicle -1.09453e-15 -1.8871e-14 -6.63071e-33
lhumerus -58.3395 -45.1504 114.771
lradius 55.0619 -0 0
lwrist 25.172 0 0
lhand 37.2967 24.4973 -1.37213e-07
lfingers 7.12502 -0 0
lthumb 60.119 38.152 -1.24988e-07
rclavicle -1.09453e-15 -1.8871e-14 -6.63071e-33
rhumerus 3.718 -24.9963 -0.162328
rradius 28.0023 -0 0
rwrist -11.2703 0 0
rhand -31.4398 -44.5756 0.000348412
rfingers 7.12502 -0 0
rthumb -4.70777 -74.5036 0.000333884
990
root 1.11688 15.1533 32.4932 5.35576 -4.62034 4.09856
lfemur 8.69195 1.71354 5.19249
ltibia 3.27699e-14 -0 0
lfoot -30.107 -11.6855 -1.20353e-05
ltoes -33.8985 0 0
rfemur -32.8998 -15.5142 -6.2522
rtibia 50.8099 -0 0
rfoot -22.5896 4.99875 2.45782e-06
rtoes -41.9065 0 0
lowerback -1.55642 -0.406737 0.689971
upperback -0.709389 -0.545108 -5.91225
thorax 0.0782704 -0.288139 -6.53276
lowerneck -6.68728 1.12624 5.89455
upperneck 1.09378 0.916098 3.33599
head 1.48098 0.56171 0.0799949
lclavicle -1.04197e-15 -1.87574e-14 -1.00308e-32
lhumerus -58.3445 -45.1718 114.779
lradius 55.0719 -0 0
lwrist 25.1731 0 0
lhand 37.2967 24.5051 -2.07573e-07
lfingers 7.12502 -0 0
lthumb 60.119 38.1599 -1.8908e-07
rclavicle -1.04197e-15 -1.87574e-14 -1.00308e-32
rhumerus 3.70293 -24.9793 -0.15629
rradius 27.996 -0 0
rwrist -11.2529 0 0
rhand -31.4285 -44.5478 0.000527074
rfingers 7.12502 -0 0
rthumb -4.69685 -74.476 0.000505097
